<svg width="1901" height="1601" viewBox="0 0 1901 1601" fill="none" xmlns="http://www.w3.org/2000/svg">
<g opacity="0.4">
<path d="M291.71 711.596C289.25 715.533 286.789 719.47 284.821 722.422C259.723 757.362 230.688 788.858 197.225 822.813C192.796 827.242 188.367 832.163 183.445 836.592C155.887 864.151 127.837 892.693 110.613 926.649C104.215 939.936 102.247 949.779 104.707 956.176C106.184 959.129 108.152 961.097 111.105 961.589C112.581 962.081 113.565 962.081 115.042 962.081C120.947 962.081 129.313 959.129 138.171 953.715C156.379 942.889 173.603 929.11 190.335 915.823C204.114 904.996 218.386 893.678 232.657 884.327C291.71 845.451 330.587 819.369 348.796 746.536C352.732 731.28 354.701 696.832 342.89 682.069C338.953 677.148 333.54 674.687 327.143 674.687C313.363 675.671 301.061 696.34 291.71 711.596ZM329.603 676.656C335.016 676.656 339.445 679.116 342.89 683.545C354.209 698.309 352.24 731.772 348.303 746.536C330.095 818.876 291.71 844.466 232.657 883.343C217.893 893.185 203.622 904.012 190.335 914.839C173.603 928.126 156.379 941.413 138.171 952.731C127.345 959.621 117.502 962.081 112.089 960.605C109.628 959.621 107.66 958.144 106.676 955.684C104.215 949.778 106.184 939.936 112.581 927.141C129.313 893.678 157.856 865.135 184.922 837.577C189.351 832.656 194.272 828.227 198.701 823.798C231.673 789.842 261.199 758.347 286.297 723.406C288.266 720.454 290.726 716.517 293.187 712.58C302.045 697.817 314.348 677.64 328.619 677.148C329.111 676.656 329.111 676.656 329.603 676.656Z" fill="#C4C4C4"/>
<path d="M321.729 629.414C300.076 634.827 281.376 664.846 266.121 688.467C260.707 696.833 255.786 704.707 251.357 710.612C226.751 742.108 199.193 770.65 172.619 798.209C165.729 805.59 156.871 813.464 147.521 821.83C119.963 847.42 86.007 878.915 75.6727 907.95C66.8146 932.555 72.2279 955.685 77.149 977.83C81.0859 996.038 85.5149 1015.23 82.0701 1035.41C80.1017 1047.71 72.72 1060.01 64.8462 1072.81C55.496 1088.06 45.6537 1103.81 45.1616 1121.03C45.1616 1126.94 45.6537 1132.35 47.6222 1138.26C54.0197 1156.47 60.9092 1164.83 68.7831 1164.83C76.6569 1164.83 85.5149 1156.47 98.3099 1136.29C110.613 1117.1 115.534 1094.46 119.963 1072.81C124.884 1051.15 129.313 1028.52 142.108 1008.83C165.729 971.432 207.559 944.366 243.975 919.761C246.928 917.792 250.373 915.824 253.326 913.855C314.348 873.502 362.575 841.515 383.736 755.395C389.641 732.758 388.165 674.688 364.543 645.161C353.717 630.398 338.953 625.477 321.729 629.414ZM363.067 646.638C383.736 673.212 388.165 729.313 381.767 754.903C360.606 840.038 312.871 871.533 252.341 911.887C249.389 913.855 246.436 915.824 242.991 917.792C206.083 941.906 164.253 969.464 140.139 1007.36C127.345 1027.04 122.423 1050.17 117.994 1072.32C113.565 1093.97 108.644 1116.11 96.3414 1135.31C87.9755 1149.09 77.6411 1162.86 68.7831 1162.86C61.8935 1162.86 55.9881 1154.5 49.5906 1137.77C47.6222 1132.35 46.638 1127.43 47.1301 1121.53C47.6222 1105.29 57.4645 1089.54 66.3225 1074.28C74.1963 1061.49 82.0701 1049.19 84.0386 1036.39C87.4834 1016.21 83.0544 997.022 79.1175 978.322C74.1963 955.193 69.2752 933.54 77.6411 909.426C87.9755 880.884 121.931 849.388 148.998 824.291C158.348 815.925 167.206 807.559 174.095 800.177C200.669 772.619 228.228 744.076 252.833 712.581C257.262 706.676 262.184 698.802 267.597 690.436C282.36 666.814 301.061 637.288 321.729 632.366C325.666 631.382 329.111 630.89 332.556 630.89C344.859 630.398 354.701 635.811 363.067 646.638Z" fill="#C4C4C4"/>
<path d="M344.367 522.624C332.556 505.892 322.221 503.432 311.887 501.463C304.505 499.987 296.632 498.018 287.774 491.621L287.281 490.637C262.184 462.586 178.032 371.053 149.49 371.053C146.045 371.053 143.584 372.037 141.616 374.498C137.679 379.419 138.171 389.261 142.108 405.009C144.569 414.359 168.682 427.154 193.78 440.441C214.941 451.76 236.594 463.571 243.975 471.936C250.373 479.81 259.231 490.637 258.739 494.574C258.739 495.558 257.263 496.05 255.294 497.034C250.865 499.003 244.468 502.448 247.912 518.195C250.373 529.022 256.77 539.356 263.66 549.69C269.565 559.533 275.471 568.391 277.439 577.249C283.837 601.362 243.975 645.652 217.893 675.179C209.035 685.022 201.654 693.387 197.225 699.785C178.032 725.375 154.411 748.504 131.282 771.141C86.4992 815.432 40.2406 861.198 24.0009 924.189C-1.58904 1018.67 -6.51017 1101.84 8.25322 1171.72C16.127 1209.12 43.1933 1260.79 69.7674 1260.79C86.0071 1260.79 98.31 1241.11 105.2 1202.23C132.758 1052.63 208.051 1002.93 280.392 954.7C344.859 911.886 405.881 871.532 431.963 767.204C441.805 727.835 426.55 666.813 406.865 633.35C398.007 618.586 387.181 609.728 376.354 601.854C367.004 594.473 358.146 588.075 351.256 577.249C346.335 569.375 347.319 560.517 348.304 551.167C349.288 541.324 350.272 531.482 344.367 522.624ZM348.304 578.725C355.685 590.044 364.543 596.933 374.386 604.315C384.72 612.189 395.546 620.555 403.912 634.826C423.105 667.798 438.36 727.343 428.518 766.22C402.436 869.564 342.398 909.425 278.423 951.747C205.099 1000.47 129.313 1050.66 101.755 1201.74C94.8652 1238.16 84.0387 1257.35 69.7674 1257.35C47.6223 1257.35 20.0639 1210.6 11.698 1170.74C-3.06538 1101.35 1.85574 1018.67 25.9693 925.173C42.209 863.166 87.9756 817.892 132.266 773.602C155.395 750.965 179.509 727.343 198.701 701.753C203.13 695.356 211.004 686.99 219.37 677.64C247.912 645.652 286.297 602.346 279.9 576.264C277.439 566.914 271.534 557.564 265.628 547.722C259.231 537.88 252.834 527.053 250.373 517.211C247.42 504.416 251.849 501.955 256.278 499.987C258.739 499.003 260.707 497.526 261.199 495.066C262.184 491.621 259.723 485.716 245.944 469.476C238.07 460.126 215.925 448.315 194.764 436.996C172.619 425.186 147.029 411.407 145.061 403.533C140.14 385.817 141.616 378.927 144.076 375.974C145.061 374.498 147.029 374.006 148.998 374.006C170.651 374.006 233.149 435.028 284.329 492.605C284.821 493.097 285.313 493.589 285.313 493.589C295.155 500.971 303.521 502.448 310.903 504.416C321.237 506.877 330.587 508.845 341.414 524.593C346.827 531.974 345.843 541.324 344.859 550.675C343.875 560.517 342.89 570.359 348.304 578.725Z" fill="#C4C4C4"/>
<path d="M304.013 757.854C296.631 757.854 289.742 766.712 284.329 773.11C283.344 774.586 282.36 775.571 281.376 776.555C276.455 781.968 272.026 787.873 267.105 793.779C264.152 797.224 261.199 801.16 258.247 804.605L257.754 805.097C247.912 816.908 243.975 824.29 245.452 828.227C245.944 829.211 246.928 830.687 249.389 831.179C249.881 831.179 250.373 831.179 250.373 831.179C270.057 830.687 285.805 812.971 293.679 802.145C301.06 791.81 306.474 780.984 307.95 772.126C308.442 770.157 309.426 762.776 306.966 759.331C306.966 758.347 305.489 757.854 304.013 757.854ZM306.966 772.126C304.997 780.492 300.076 791.318 292.695 801.16C285.313 811.495 270.057 828.719 251.357 829.211V830.687V829.703C250.865 829.703 250.865 829.703 250.373 829.703C248.404 829.703 248.404 828.719 248.404 828.719C247.912 827.242 247.912 822.813 260.215 808.05L260.707 807.558C263.66 804.113 266.612 800.176 269.565 796.731C273.994 791.318 278.915 785.413 283.836 779.507C284.821 778.523 285.805 777.047 286.789 775.571C291.218 769.665 298.108 761.299 304.505 761.299C305.489 761.299 306.474 761.791 306.966 762.283C307.95 763.268 307.458 768.189 306.966 772.126Z" fill="#C4C4C4"/>
<path d="M823.193 1256.37C888.644 1248.98 958.524 1173.2 959.508 1109.22C960.985 1010.8 904.391 932.554 849.767 856.769C840.417 843.974 831.067 830.687 821.716 817.4L816.303 809.526C790.713 772.618 761.679 730.296 751.836 685.021C743.963 646.637 731.66 557.072 744.947 526.069C754.789 503.432 782.347 490.637 809.414 477.842C828.114 468.984 845.83 461.11 858.133 449.791L858.625 449.299C900.947 410.914 900.947 410.914 929.489 409.93C938.347 409.438 949.174 409.438 964.429 407.962C985.098 405.993 996.909 403.041 1005.77 401.072C1011.18 399.596 1015.61 398.612 1019.05 398.612C1027.91 398.612 1035.29 405.009 1059.9 425.678C1132.73 487.192 1131.26 593.98 1129.78 697.324C1128.3 827.242 1126.33 962.081 1273.48 1004.4C1294.64 1010.31 1315.31 1013.75 1334.99 1013.75C1390.11 1013.75 1437.35 989.147 1471.31 942.397C1521.01 873.993 1534.3 766.712 1504.28 675.671C1434.89 466.031 1269.54 346.448 1091.39 232.277C929.489 128.441 775.458 99.8987 644.063 81.1984C634.713 79.7221 625.363 79.23 616.997 79.23C563.357 79.23 538.259 106.296 506.272 140.744C493.969 154.031 481.174 167.318 465.426 181.59C447.218 197.337 424.089 208.164 401.944 218.99C365.527 236.214 331.572 252.454 317.3 288.378C287.281 364.656 361.098 424.694 426.057 477.35C456.076 501.463 484.619 524.593 501.351 547.722C567.786 638.763 547.609 792.794 487.571 878.914C468.871 905.98 432.947 939.444 395.054 974.384C332.064 1032.95 260.707 1098.89 247.912 1154.99C242.007 1181.07 243.483 1199.28 252.833 1211.09C260.215 1220.44 273.502 1225.36 292.202 1225.36C323.206 1225.36 367.496 1212.57 414.247 1199.28C471.824 1182.55 536.783 1163.85 591.9 1163.85C618.474 1163.85 640.127 1167.78 658.827 1176.64C679.988 1186.48 698.196 1200.26 715.912 1214.04C744.947 1236.68 772.013 1257.84 810.398 1257.84C814.827 1256.86 818.764 1256.86 823.193 1256.37ZM659.811 1173.69C641.111 1165.32 618.474 1160.9 591.9 1160.9C536.291 1160.9 470.84 1179.6 413.262 1196.33C366.512 1209.61 322.221 1222.41 291.71 1222.41C273.502 1222.41 261.691 1217.98 254.31 1209.12C245.452 1198.3 244.467 1180.58 249.881 1155.48C262.184 1100.37 333.54 1034.42 396.038 976.353C433.931 940.92 470.347 907.457 489.048 880.391C549.578 793.286 569.262 638.271 502.827 546.246C486.095 523.116 457.553 499.987 427.042 475.381C362.575 423.217 289.25 364.164 318.777 289.362C332.556 254.422 366.512 238.183 402.436 221.451C425.073 210.624 448.202 199.798 466.411 183.558C482.158 169.779 494.953 156 507.256 142.713C538.751 108.757 563.849 82.1827 616.505 82.1827C624.871 82.1827 633.729 82.6748 643.079 84.1511C774.474 102.851 928.505 131.394 1089.43 234.738C1267.08 348.416 1431.94 467.999 1500.83 677.148C1530.36 767.204 1517.56 873.501 1468.35 941.413C1434.89 987.671 1388.63 1011.78 1334.01 1011.78C1314.81 1011.78 1294.15 1008.83 1273.48 1002.43C1208.03 983.734 1167.18 944.857 1147.5 883.835C1129.78 829.211 1130.76 762.283 1131.75 697.324C1133.22 593.488 1134.21 485.716 1060.88 423.709C1025.94 394.182 1024.96 393.69 1004.78 398.612C995.925 400.58 984.114 403.533 963.445 405.501C948.19 406.977 937.363 407.47 928.997 407.47C899.47 408.454 899.47 408.454 856.164 447.331L855.672 447.823C843.369 458.649 826.145 467.015 807.937 475.381C780.379 488.176 752.328 501.463 741.994 524.592C728.215 556.088 740.518 646.144 748.884 685.021C758.234 730.788 787.761 773.11 813.351 810.018L818.764 817.892C827.622 831.179 837.464 844.466 846.814 857.261C901.439 933.047 957.54 1010.8 956.063 1108.24C955.079 1171.23 886.183 1245.54 822.208 1252.92C818.272 1253.41 813.843 1253.41 809.906 1253.41C772.013 1253.41 745.439 1232.25 716.896 1210.11C699.672 1197.8 681.464 1183.53 659.811 1173.69Z" fill="#C4C4C4"/>
<path d="M784.807 1526.54C772.505 1545.24 756.757 1568.86 762.17 1584.6C764.139 1591 770.044 1595.92 778.41 1599.37C779.886 1599.86 781.855 1600.35 783.823 1600.35C803.016 1600.35 833.034 1570.83 859.609 1545.24C876.34 1529 892.58 1513.25 901.93 1508.82C947.697 1488.15 1011.18 1478.31 1066.79 1469.45C1088.93 1466.01 1109.6 1462.56 1128.79 1459.12C1172.59 1450.75 1214.91 1446.32 1254.28 1446.32C1383.71 1446.32 1492.96 1493.07 1577.6 1585.1C1586.95 1595.43 1601.22 1600.84 1618.94 1600.84C1674.55 1600.84 1769.53 1546.71 1836.95 1446.81C1877.3 1386.78 1935.37 1264.24 1874.84 1117.1C1850.72 1058.04 1814.31 1030.49 1761.16 1030.49C1720.81 1030.49 1674.55 1045.25 1620.91 1062.47C1554.96 1083.63 1480.66 1107.75 1400.44 1107.75C1337.94 1107.75 1280.86 1093.48 1225.25 1063.95C1053.99 972.416 1049.07 806.081 1063.84 671.242C1069.74 618.586 1060.39 577.249 1036.77 551.167C1020.04 532.958 997.892 523.116 971.81 523.116C922.599 523.116 860.593 561.501 838.448 634.826C817.287 703.722 866.99 766.712 924.567 839.053C989.526 920.744 1062.85 1013.75 1048.58 1137.77C1041.69 1199.28 1019.05 1258.33 988.542 1295.24C965.413 1323.29 944.744 1326.25 923.583 1328.71C906.851 1330.67 890.12 1332.64 869.943 1345.44C854.687 1355.28 849.766 1371.52 844.845 1389.24C841.4 1401.05 837.956 1413.84 830.574 1424.18C826.637 1429.59 819.747 1431.07 811.874 1432.05C802.031 1433.53 791.205 1435.49 785.299 1448.29C781.363 1457.15 786.776 1467.48 791.697 1477.32C796.126 1485.69 800.555 1494.55 799.079 1501.44C797.602 1506.36 791.697 1515.71 784.807 1526.54ZM793.665 1475.36C788.744 1465.51 783.823 1456.16 787.268 1448.78C792.681 1437.46 802.523 1435.99 811.874 1434.02C819.747 1432.54 827.621 1431.56 832.05 1424.67C839.924 1413.84 843.369 1401.54 846.814 1389.24C851.735 1372.5 856.164 1356.26 870.927 1346.91C890.612 1334.61 907.344 1332.64 923.583 1330.67C945.728 1327.72 966.889 1325.26 990.511 1296.23C1021.51 1258.33 1044.15 1199.28 1051.04 1137.27C1065.31 1012.28 991.495 918.775 926.536 836.592C869.451 764.744 820.239 702.245 840.908 634.826C862.561 562.977 923.091 525.085 971.318 525.085C996.416 525.085 1018.56 534.435 1034.31 552.151C1056.95 577.741 1066.3 618.586 1060.39 670.258C1045.63 806.081 1050.55 973.892 1223.28 1065.92C1279.38 1095.94 1336.96 1110.21 1399.95 1110.21C1480.66 1110.21 1555.46 1086.09 1621.4 1064.93C1674.55 1047.71 1720.81 1032.95 1760.67 1032.95C1813.32 1032.95 1847.28 1059.03 1871.39 1117.59C1931.43 1263.25 1873.85 1384.81 1833.99 1444.35C1770.02 1540.31 1674.06 1597.4 1618.45 1597.4C1601.22 1597.4 1588.43 1592.48 1579.08 1582.64C1493.45 1490.12 1384.2 1442.88 1253.3 1442.88C1213.44 1442.88 1171.12 1447.31 1126.83 1455.67C1107.63 1459.61 1086.96 1462.56 1064.82 1466.01C1008.72 1474.86 945.236 1484.71 898.978 1505.87C889.135 1510.3 873.388 1525.55 855.672 1542.77C829.59 1568.36 800.063 1597.4 781.855 1597.4C780.378 1597.4 778.902 1597.4 777.426 1596.91C769.552 1593.95 764.631 1590.02 762.662 1584.11C757.741 1569.35 772.997 1546.71 784.807 1528.5C792.189 1517.68 798.094 1508.33 799.571 1501.93C803.016 1493.07 798.587 1483.72 793.665 1475.36Z" fill="#C4C4C4"/>
<path d="M1172.1 1300.66C1174.07 1301.64 1176.53 1302.13 1178.5 1302.13C1187.36 1302.13 1195.72 1293.77 1203.6 1285.89C1208.03 1281.46 1211.96 1277.53 1215.41 1275.56C1219.84 1273.59 1223.77 1272.6 1228.2 1272.6C1236.08 1272.6 1242.47 1276.54 1250.35 1280.48C1253.3 1281.95 1255.76 1283.43 1259.21 1284.91C1266.59 1288.35 1273.97 1290.32 1281.35 1290.32C1288.73 1290.32 1295.62 1288.84 1303 1286.88C1310.38 1284.91 1318.26 1282.94 1327.61 1282.94H1328.59C1347.29 1282.94 1364.52 1292.78 1380.76 1302.13C1397 1311.48 1414.22 1321.32 1432.92 1321.32C1441.78 1321.32 1450.15 1319.36 1459 1314.93C1465.89 1311.48 1471.31 1307.05 1475.74 1303.12C1483.61 1296.72 1490.01 1291.3 1501.32 1291.3C1504.77 1291.3 1508.21 1291.8 1512.15 1292.78C1543.65 1300.16 1557.43 1329.2 1571.21 1357.25C1577.6 1370.54 1584 1383.82 1592.37 1394.65C1608.61 1416.3 1630.26 1428.6 1652.4 1428.6H1653.39C1675.53 1428.11 1696.69 1415.81 1713.43 1394.16C1735.57 1364.63 1776.42 1268.18 1759.68 1220.44C1754.76 1206.17 1744.92 1197.31 1731.14 1193.87C1726.22 1192.39 1721.79 1191.9 1717.36 1191.9C1703.09 1191.9 1692.26 1198.3 1679.96 1205.68C1677.01 1207.15 1674.06 1209.12 1671.1 1210.6C1646.01 1224.87 1620.91 1227.82 1594.33 1230.77C1584 1231.76 1573.17 1233.24 1562.35 1235.2C1550.04 1237.66 1539.22 1241.6 1528.88 1245.54C1515.1 1250.95 1501.82 1255.87 1487.55 1255.87C1477.7 1255.87 1468.35 1253.41 1458.51 1248.49C1438.33 1238.65 1416.19 1229.3 1391.58 1229.3C1383.71 1229.3 1375.34 1230.28 1367.47 1232.25C1363.53 1233.24 1360.09 1234.22 1356.64 1235.2C1342.37 1238.65 1329.09 1242.09 1315.8 1242.09C1304.97 1242.09 1294.64 1239.63 1284.3 1235.2L1279.87 1233.24C1261.17 1224.87 1241.98 1215.52 1222.3 1215.52C1211.47 1215.52 1201.63 1217.98 1191.79 1223.39C1179.48 1230.28 1162.75 1258.83 1163.24 1279C1161.77 1289.83 1165.21 1296.72 1172.1 1300.66ZM1191.79 1226.84C1201.14 1221.42 1210.98 1218.96 1221.31 1218.96C1240.5 1218.96 1259.21 1227.82 1277.91 1236.19L1282.33 1238.16C1292.67 1243.08 1303.5 1245.54 1314.81 1245.54C1328.59 1245.54 1342.37 1242.09 1356.64 1238.65C1360.09 1237.66 1364.03 1236.68 1367.47 1235.7C1375.34 1233.73 1383.22 1232.74 1391.09 1232.74C1415.21 1232.74 1436.86 1242.09 1457.03 1251.44C1467.37 1256.36 1477.21 1258.83 1487.05 1258.83C1501.82 1258.83 1515.1 1253.9 1529.38 1248C1539.71 1244.06 1550.54 1239.63 1562.35 1237.66C1573.17 1235.7 1584 1234.22 1594.33 1233.24C1620.91 1230.28 1646.5 1227.33 1672.09 1212.57C1675.04 1210.6 1677.99 1209.12 1680.95 1207.65C1693.25 1200.26 1703.58 1194.36 1717.36 1194.36C1721.79 1194.36 1725.73 1194.85 1730.65 1196.33C1743.94 1199.77 1752.79 1208.14 1757.22 1221.42C1773.96 1268.67 1733.6 1363.65 1711.46 1393.17C1695.22 1414.33 1674.55 1426.14 1653.39 1426.64H1652.4C1631.24 1426.64 1610.57 1414.83 1594.33 1393.66C1586.46 1382.84 1580.06 1370.04 1573.67 1356.26C1559.89 1327.72 1545.62 1298.19 1513.14 1290.32C1509.2 1289.34 1505.26 1288.84 1501.82 1288.84C1490.01 1288.84 1483.12 1294.75 1474.75 1301.15C1469.83 1305.08 1464.91 1309.02 1458.51 1312.47C1450.15 1316.89 1441.78 1318.86 1433.41 1318.86C1415.7 1318.86 1399.46 1310.01 1382.73 1300.16C1365.99 1290.81 1348.28 1280.97 1329.09 1280.97H1328.1C1318.75 1280.97 1310.38 1282.94 1303 1284.91C1295.62 1286.88 1289.22 1288.35 1281.84 1288.35C1274.46 1288.35 1268.06 1286.88 1261.17 1283.43C1258.22 1281.95 1255.27 1280.48 1252.81 1279C1244.93 1274.57 1238.04 1270.64 1229.68 1270.64C1225.25 1270.64 1220.82 1271.62 1215.9 1274.08C1211.96 1276.05 1208.03 1279.99 1203.1 1284.91C1195.72 1292.29 1187.85 1300.16 1179.97 1300.16C1178.01 1300.16 1176.53 1299.67 1174.56 1298.69C1168.66 1295.24 1165.21 1289.34 1165.21 1280.48C1164.23 1260.3 1180.96 1232.74 1191.79 1226.84Z" fill="#C4C4C4"/>
<path d="M854.688 1474.86C857.64 1475.85 863.546 1476.34 870.435 1476.34C885.199 1476.34 940.807 1473.88 1027.42 1445.34C1099.76 1421.22 1184.4 1408.43 1266.09 1408.43C1399.95 1408.43 1489.02 1428.6 1603.68 1538.35C1612.05 1546.22 1622.88 1550.16 1636.16 1550.16C1685.87 1550.16 1761.16 1496.02 1807.91 1426.64C1844.33 1372.5 1896.98 1262.27 1842.36 1129.89C1818.74 1073.3 1789.7 1065.43 1761.16 1065.43C1726.22 1065.43 1682.42 1079.7 1631.73 1095.94C1563.33 1118.08 1486.07 1142.69 1400.44 1142.69C1332.04 1142.69 1269.54 1126.94 1208.52 1094.46C1016.59 992.101 1014.13 801.16 1028.9 666.814C1033.32 624.984 1026.93 592.012 1010.69 573.804C1000.85 562.978 987.558 557.072 971.81 557.072C935.394 557.072 889.628 587.091 871.911 643.684C856.164 695.356 900.454 750.965 952.126 815.924C1017.58 898.599 1099.27 1001.94 1083.52 1140.23C1079.09 1179.6 1068.26 1217.49 1052.02 1251.94C1025.94 1307.05 991.987 1353.8 950.157 1391.2C922.599 1415.81 895.041 1433.03 874.864 1445.34C856.656 1456.66 845.337 1463.54 846.322 1468.96C846.814 1471.42 849.274 1473.39 854.688 1474.86ZM875.848 1446.81C896.025 1434.51 923.583 1417.29 951.142 1392.68C992.971 1355.28 1027.42 1308.53 1053.5 1252.92C1069.74 1217.98 1080.57 1180.09 1085 1140.72C1100.74 1001.94 1019.05 898.599 953.11 815.432C901.93 750.965 858.132 695.356 873.388 644.668C890.612 588.568 935.886 559.041 971.81 559.041C987.558 559.041 1000.35 564.454 1009.7 575.28C1025.94 592.997 1031.85 625.476 1027.42 666.814C1012.66 801.653 1015.12 993.085 1208.02 1095.94C1269.05 1128.42 1332.04 1144.16 1400.44 1144.16C1486.56 1144.16 1563.82 1119.07 1632.23 1096.92C1682.91 1080.68 1726.22 1066.41 1761.16 1066.41C1788.72 1066.41 1817.75 1074.28 1840.88 1130.38C1895.01 1261.78 1842.36 1371.52 1806.43 1425.65C1761.16 1493.56 1684.88 1548.68 1636.16 1548.68C1623.37 1548.68 1612.54 1544.74 1604.67 1537.36C1549.06 1484.21 1497.39 1450.26 1441.78 1431.07C1394.04 1414.33 1341.39 1407.44 1266.09 1407.44C1184.4 1407.44 1099.76 1420.73 1026.93 1444.84C940.315 1473.39 885.199 1475.85 870.435 1475.85C863.546 1475.85 857.64 1475.36 854.688 1474.86C850.259 1473.88 847.798 1472.4 847.306 1470.43C847.306 1464.53 859.117 1457.15 875.848 1446.81Z" fill="#C4C4C4"/>
<path d="M971.811 591.028C945.237 591.028 916.203 617.602 906.852 641.715C900.455 657.463 905.376 684.529 919.647 714.548C932.934 742.599 951.143 763.759 964.43 767.696C966.398 768.188 968.366 768.681 970.335 768.681C972.795 768.681 974.764 768.188 976.732 767.696C993.956 761.791 993.464 751.457 992.48 728.327C991.988 714.056 991.004 694.864 993.956 668.289C997.893 632.365 992.48 605.299 984.606 596.933C983.13 593.488 979.685 591.028 971.811 591.028ZM992.48 667.305C989.527 694.371 990.019 713.564 991.004 727.835C991.988 750.964 991.988 759.33 976.732 764.744C973.288 766.22 969.351 766.22 965.414 764.744C952.619 760.807 935.395 740.138 922.108 712.58C907.837 683.545 903.408 656.971 909.313 641.715C918.663 618.586 946.713 592.504 971.811 592.504C978.701 592.504 981.653 594.472 983.622 596.933C991.004 605.791 995.925 632.365 992.48 667.305Z" fill="#C4C4C4"/>
<path d="M1567.27 1304.1C1572.68 1306.07 1575.63 1308.04 1579.57 1310.01C1581.05 1310.99 1583.02 1311.97 1584.98 1312.96C1605.16 1323.78 1622.38 1335.1 1634.2 1344.95C1641.09 1350.85 1646.5 1353.31 1650.93 1353.31C1657.82 1353.31 1661.75 1347.41 1664.71 1341.99C1676.52 1321.82 1680.95 1306.07 1685.87 1278.51C1686.36 1275.07 1686.36 1270.64 1683.9 1267.19C1680.45 1262.76 1673.07 1262.27 1662.74 1265.22C1631.74 1274.08 1610.57 1278.02 1584 1282.94C1579.57 1283.92 1574.65 1284.91 1569.73 1285.89C1564.81 1286.88 1560.87 1290.32 1560.38 1294.75C1559.89 1296.72 1560.38 1301.15 1567.27 1304.1ZM1570.22 1288.84C1575.14 1287.86 1580.06 1286.88 1584.49 1285.89C1611.07 1280.97 1632.23 1277.03 1663.72 1268.18C1667.66 1267.19 1671.1 1266.7 1673.56 1266.7C1677.5 1266.7 1679.96 1267.68 1681.44 1269.65C1683.41 1272.11 1683.41 1276.05 1682.91 1278.51C1677.99 1305.58 1674.06 1320.83 1662.25 1341.01C1658.8 1346.91 1655.36 1350.85 1650.93 1350.85C1646.99 1350.85 1642.07 1348.39 1635.67 1342.98C1623.86 1332.64 1606.64 1321.82 1585.97 1310.5C1584 1309.51 1582.52 1308.53 1580.56 1307.55C1576.62 1305.08 1573.17 1303.61 1567.76 1301.15C1563.82 1299.67 1561.85 1297.21 1562.35 1294.75C1563.33 1292.29 1566.28 1289.34 1570.22 1288.84Z" fill="#C4C4C4"/>
<path d="M1115.51 1355.77C1119.94 1355.77 1125.84 1355.28 1132.73 1354.79C1135.68 1354.3 1207.04 1346.42 1283.81 1346.42C1313.83 1346.42 1340.4 1347.9 1363.04 1349.87C1476.23 1362.17 1574.16 1415.81 1620.91 1464.04C1629.77 1472.9 1639.61 1477.32 1651.42 1477.32C1677.5 1477.32 1709.98 1454.69 1740 1414.83C1792.66 1344.95 1808.9 1211.58 1782.32 1159.42C1775.43 1145.64 1765.59 1138.26 1754.27 1138.26C1753.29 1138.26 1752.3 1138.26 1751.32 1138.26C1730.65 1140.23 1702.11 1148.59 1665.69 1159.42C1597.78 1179.6 1504.28 1206.66 1403.39 1208.14C1317.27 1209.61 1218.36 1175.17 1184.9 1158.93C1174.07 1153.51 1166.69 1151.05 1161.77 1151.05C1151.92 1151.05 1151.43 1160.4 1150.45 1176.15C1149.96 1188.45 1148.97 1205.68 1143.07 1225.36C1131.75 1260.79 1119.44 1287.86 1110.09 1307.55C1099.76 1329.2 1093.85 1342.49 1098.28 1349.37C1100.74 1354.3 1106.16 1355.77 1115.51 1355.77ZM1111.57 1309.02C1120.92 1289.34 1133.22 1262.27 1144.54 1226.35C1150.94 1206.66 1151.43 1189.44 1151.92 1176.64C1152.42 1161.39 1152.91 1152.53 1161.77 1152.53C1166.2 1152.53 1173.58 1154.99 1183.91 1159.91C1216.88 1176.15 1312.85 1209.12 1397.98 1209.12C1399.46 1209.12 1401.43 1209.12 1402.9 1209.12C1504.28 1207.65 1597.29 1180.09 1665.69 1159.91C1702.11 1149.08 1730.65 1140.72 1751.32 1138.75C1763.62 1137.27 1773.46 1144.16 1780.84 1158.93C1806.93 1211.09 1790.69 1343.47 1738.52 1412.86C1708.5 1452.23 1677.01 1474.86 1650.93 1474.86C1639.61 1474.86 1629.77 1470.43 1621.4 1462.07C1574.16 1413.84 1476.23 1359.71 1362.55 1347.41C1339.91 1344.95 1313.34 1343.96 1283.32 1343.96C1206.55 1343.96 1135.19 1351.84 1132.24 1352.33C1125.35 1353.31 1119.94 1353.31 1115.51 1353.31C1106.65 1353.31 1101.73 1351.84 1099.27 1348.39C1095.33 1343.47 1101.73 1330.67 1111.57 1309.02Z" fill="#C4C4C4"/>
<path d="M1005.27 1412.37C1009.7 1412.37 1015.61 1411.38 1022.01 1408.92C1090.9 1384.81 1170.62 1373.49 1266.09 1373.49C1385.19 1373.49 1502.8 1384.31 1636.66 1516.2C1640.59 1520.14 1645.51 1522.11 1651.91 1522.11C1689.31 1522.11 1758.7 1450.26 1778.88 1406.95C1780.85 1403.02 1782.81 1399.08 1784.78 1394.65C1810.86 1341.01 1854.66 1251.44 1809.88 1143.18C1792.16 1099.87 1775.43 1099.87 1760.67 1099.87C1731.14 1099.87 1689.8 1113.16 1642.07 1128.42C1571.21 1151.05 1491.48 1177.14 1400.44 1177.14C1322.69 1177.14 1259.21 1162.86 1195.72 1130.88C1185.88 1125.96 1176.53 1120.54 1168.16 1115.62C1151.43 1105.78 1138.15 1098.4 1129.78 1098.4C1123.38 1098.4 1119.94 1102.83 1119.94 1112.67C1119.94 1114.14 1119.94 1116.61 1120.43 1120.05C1129.29 1213.55 1093.36 1300.66 1013.15 1379.39C998.877 1393.17 992.972 1403.02 995.432 1408.92C996.417 1410.89 999.861 1412.37 1005.27 1412.37ZM1014.13 1379.39C1065.8 1328.71 1099.76 1274.08 1115.02 1216.5C1127.32 1170.25 1123.87 1134.32 1122.4 1119.07C1121.91 1115.62 1121.91 1113.16 1121.91 1111.68C1121.91 1100.37 1126.83 1098.89 1130.27 1098.89C1138.15 1098.89 1151.92 1106.76 1168.16 1116.11C1176.53 1121.03 1185.88 1126.45 1195.72 1131.37C1259.7 1163.85 1322.69 1178.12 1400.93 1178.12C1492.47 1178.12 1572.68 1152.04 1643.05 1129.4C1690.79 1114.14 1732.13 1100.86 1761.16 1100.86C1775.43 1100.86 1791.67 1100.86 1808.9 1143.18C1853.19 1250.95 1809.88 1340.52 1783.8 1393.66C1781.83 1398.09 1779.37 1402.03 1777.89 1405.97C1757.72 1448.78 1688.82 1520.14 1651.91 1520.14C1646.01 1520.14 1641.58 1518.17 1638.13 1514.72C1576.13 1453.7 1511.66 1413.35 1441.29 1392.19C1378.79 1373.49 1320.72 1371.52 1266.59 1371.52C1171.12 1371.52 1090.9 1383.33 1022.01 1406.95C1016.1 1408.92 1010.2 1410.4 1005.77 1410.4C1002.32 1410.4 998.385 1409.9 996.909 1406.46C995.432 1404 995.924 1396.62 1014.13 1379.39Z" fill="#C4C4C4"/>
<path d="M696.719 907.95C693.275 904.997 690.322 903.521 687.861 903.521C680.972 903.521 676.051 912.379 668.669 925.666C661.287 939.445 650.953 958.145 632.745 977.338L627.332 982.751C606.663 1004.4 597.313 1014.25 599.773 1019.66C600.757 1022.12 604.202 1023.1 610.108 1023.1C615.029 1023.1 622.903 1022.12 635.697 1020.64C641.111 1020.15 646.032 1019.66 651.445 1019.66C694.259 1019.66 729.691 1043.77 755.773 1061C771.029 1071.33 782.839 1079.21 791.697 1079.21C795.142 1079.21 798.095 1077.73 800.555 1074.78C827.622 1040.33 732.152 940.429 696.719 907.95ZM798.587 1073.79C796.618 1076.25 794.65 1077.24 791.697 1077.24C783.824 1077.24 772.013 1069.36 757.249 1059.52C731.167 1041.8 695.243 1017.69 651.445 1017.69C646.032 1017.69 640.619 1018.18 635.205 1018.68C622.903 1020.64 615.029 1021.14 610.108 1021.14C605.186 1021.14 602.726 1020.64 602.234 1019.17C600.757 1015.23 612.076 1003.42 629.3 984.719L634.713 979.306C652.921 960.114 663.256 940.921 671.13 927.142C678.019 914.839 682.448 906.473 687.861 906.473C689.83 906.473 692.291 907.95 695.243 910.41C739.041 949.779 822.701 1042.79 798.587 1073.79Z" fill="#C4C4C4"/>
<path d="M697.704 949.287C680.48 949.287 658.335 976.353 658.335 989.148C658.335 994.561 661.78 997.514 667.193 997.514C692.783 998.006 719.357 1014.25 739.041 1025.56C750.852 1032.45 759.218 1037.37 764.139 1037.37C765.616 1037.37 767.092 1036.88 768.076 1035.9C769.06 1034.91 769.552 1032.95 769.552 1029.99C767.584 1006.37 722.802 959.129 704.594 949.779C702.133 949.779 699.672 949.287 697.704 949.287ZM765.616 1030.98C765.616 1032.95 765.616 1033.93 765.124 1033.93C765.124 1033.93 764.631 1034.42 764.139 1034.42C760.202 1034.42 751.344 1029.01 741.01 1023.1C721.325 1011.29 693.767 994.561 667.685 994.561C663.748 994.561 662.272 993.085 662.272 989.64C662.272 978.321 682.941 953.223 698.196 953.223C700.165 953.223 701.641 953.716 703.117 954.208C721.818 963.558 763.647 1009.82 765.616 1030.98Z" fill="#C4C4C4"/>
<path d="M636.681 502.94C641.11 502.94 644.063 497.034 647.508 483.747C659.81 433.552 700.656 367.117 764.138 331.684C828.113 295.76 870.927 286.41 894.056 281.489C905.375 279.028 911.28 277.552 912.757 274.599C913.249 273.615 913.249 272.139 912.265 270.662C907.836 262.789 828.605 218.006 713.943 209.148L709.022 208.656C698.687 207.672 689.829 207.18 681.463 207.18C651.445 207.18 627.823 215.546 571.722 262.789C562.864 270.17 554.006 277.06 545.148 283.949C518.082 304.618 494.46 322.826 495.937 343.003C496.921 358.751 512.669 374.006 544.656 391.722C580.088 411.407 601.741 450.284 616.012 475.874C624.87 492.113 630.776 502.94 636.681 502.94ZM545.148 390.246C514.145 373.022 498.397 357.274 496.921 342.511C495.445 322.826 518.574 305.11 545.148 284.442C554.006 277.552 562.864 270.662 571.722 263.281C627.331 216.038 651.445 207.672 680.479 207.672C688.845 207.672 697.703 208.164 708.038 209.148L712.959 209.64C824.668 218.498 905.867 262.789 909.804 270.662C910.788 272.139 910.296 273.123 910.296 273.615C909.312 276.076 902.914 277.06 893.072 279.52C869.943 284.442 827.129 293.792 762.662 329.716C698.687 365.148 657.842 432.075 645.539 482.763C642.587 495.066 639.634 500.971 636.189 500.971C631.268 500.971 624.87 489.161 616.505 474.889C602.725 449.299 581.072 409.93 545.148 390.246Z" fill="#C4C4C4"/>
<path d="M646.032 587.583C650.461 587.583 653.414 582.662 655.382 571.344C668.177 503.432 695.736 407.47 788.253 356.29C816.796 340.542 849.275 327.747 887.168 317.905C894.55 315.937 902.915 310.524 910.789 305.11C921.124 298.221 931.458 291.331 941.3 291.331C942.285 291.331 943.761 291.331 944.745 291.823C950.158 292.807 954.095 295.76 958.032 299.205C962.461 302.65 966.89 306.094 972.303 306.094C974.272 306.094 976.732 305.602 979.193 304.618C983.13 303.142 985.591 299.697 987.559 296.744C990.512 292.315 993.464 288.378 1001.83 288.871C1010.2 289.363 1014.63 295.76 1019.55 302.65C1022.99 307.571 1026.44 312 1031.36 314.953C1034.8 316.921 1041.2 318.889 1047.1 318.889C1051.04 318.889 1053.99 317.905 1055.47 315.937C1056.95 313.968 1057.44 311.016 1056.45 307.571C1053.01 295.76 1028.4 284.934 1011.67 278.044C1006.75 276.076 1002.81 274.107 999.862 272.631C975.256 259.836 951.143 248.517 929.982 239.659C842.878 201.274 763.155 178.145 686.878 168.303C678.512 167.319 670.638 166.826 664.241 166.826C626.84 166.826 597.313 183.066 539.736 237.199C525.465 250.486 510.701 261.804 496.922 272.631C465.427 297.236 440.329 316.921 440.821 341.035C441.313 360.227 458.045 380.896 493.477 405.993C550.562 445.855 588.455 506.877 613.553 547.23C628.316 570.851 638.651 587.583 646.032 587.583ZM493.477 404.025C458.537 379.419 441.805 359.243 441.313 340.542C440.821 316.921 465.427 297.729 496.922 273.123C511.193 262.296 525.957 250.486 540.228 237.691C597.805 184.05 626.84 167.811 663.748 167.811C670.638 167.811 678.02 168.303 686.386 169.287C762.663 179.129 841.893 202.259 928.998 240.151C949.666 249.009 974.272 260.328 998.385 273.123C1001.34 274.599 1005.28 276.568 1010.2 278.536C1026.44 285.426 1051.04 296.252 1053.99 307.079C1054.98 310.031 1054.49 312.492 1053.5 313.968C1052.03 315.937 1048.58 316.429 1046.61 316.429C1041.69 316.429 1035.29 314.46 1031.85 312.492C1027.42 310.031 1023.98 305.11 1020.53 300.681C1015.61 293.792 1010.69 286.902 1001.83 286.41C992.48 285.426 989.527 290.347 986.575 294.776C984.606 297.729 982.638 300.681 978.701 302.158C976.24 303.142 974.272 303.634 972.303 303.634C966.89 303.634 962.953 300.681 959.016 297.236C955.079 294.284 950.65 290.839 944.745 289.855C943.761 289.855 942.285 289.363 941.3 289.363C930.966 289.363 920.139 296.744 909.805 303.634C901.439 309.047 894.057 314.46 886.676 316.429C848.783 326.271 816.304 339.066 787.761 354.814C694.752 406.486 666.701 502.94 653.906 570.851C651.938 580.694 649.477 585.615 646.032 585.615C639.635 585.615 628.808 568.883 614.045 545.262C588.947 504.908 550.562 444.378 493.477 404.025Z" fill="#C4C4C4"/>
<path d="M827.622 1204.69C861.086 1200.76 893.073 1177.63 908.328 1145.64C922.6 1116.6 929.981 1066.9 886.183 997.021C867.483 967.002 846.814 936.491 827.13 906.964C770.537 822.813 716.896 743.583 695.243 663.86C670.146 573.804 690.322 499.495 758.234 430.107C817.287 370.069 895.041 335.621 971.811 335.621C1029.39 335.621 1081.06 355.798 1116.98 392.706C1156.35 433.059 1176.04 492.605 1173.58 563.961C1173.09 580.693 1172.1 597.917 1171.61 616.125C1168.66 680.592 1165.21 753.917 1175.55 814.939C1187.36 884.819 1215.9 928.125 1262.65 947.318C1287.75 957.652 1311.37 962.573 1333.02 962.573C1372.39 962.573 1405.85 945.349 1429.97 912.87C1470.81 857.753 1480.66 762.775 1454.57 677.147C1397.98 493.097 1262.65 383.356 1061.87 265.741C909.313 176.668 780.871 148.618 664.24 132.378C655.382 131.394 647.508 130.41 639.635 130.41C590.915 130.41 567.786 155.015 538.751 186.511C527.433 198.321 516.114 211.116 501.351 223.911C484.619 238.675 470.348 247.533 457.553 255.406C436.884 268.201 419.168 279.028 399.975 308.063C361.098 366.132 413.262 401.564 467.887 438.965C496.922 458.649 526.941 479.318 542.688 503.432C643.572 655.987 602.726 818.876 531.37 920.744C510.701 949.778 481.174 977.336 449.187 1006.37C410.31 1041.8 370.449 1078.71 347.319 1119.56C337.477 1137.27 334.524 1149.08 338.953 1155.97C341.906 1160.89 348.796 1163.36 359.13 1163.36C377.83 1163.36 407.849 1155.48 442.789 1146.62C491.508 1133.83 552.038 1118.08 605.679 1118.08C634.221 1118.08 658.335 1122.51 678.019 1131.37C697.704 1140.23 713.944 1153.02 730.183 1165.32C756.265 1185.99 781.363 1205.19 816.303 1205.19C820.24 1205.68 823.685 1205.19 827.622 1204.69ZM678.511 1130.38C658.335 1121.03 634.713 1116.6 605.679 1116.6C552.038 1116.6 491.016 1132.35 442.297 1145.15C407.849 1154.01 377.83 1161.88 359.13 1161.88C349.288 1161.88 342.89 1159.42 339.938 1154.99C336.001 1148.59 338.953 1136.78 348.303 1120.05C370.941 1079.2 411.294 1042.79 449.679 1007.36C481.174 978.321 511.193 950.763 531.862 921.728C573.691 862.182 598.789 794.27 603.71 725.375C609.124 646.636 588.947 571.835 543.672 502.939C527.433 478.334 497.414 457.665 468.379 437.98C414.247 401.072 363.067 365.64 400.96 309.047C420.152 280.012 437.868 269.186 458.045 256.883C470.84 249.009 485.603 240.151 502.335 225.388C516.606 212.593 528.417 200.29 539.736 187.987C568.77 156.984 591.9 132.378 639.635 132.378C647.016 132.378 655.382 132.87 663.748 134.347C779.887 150.586 908.328 178.145 1060.88 267.709C1261.17 385.324 1396.5 494.573 1453.1 678.132C1479.18 763.267 1469.34 857.753 1428.98 912.87C1405.36 944.857 1371.9 962.081 1333.02 962.081C1311.37 962.081 1288.24 957.16 1263.14 946.826C1216.88 928.125 1188.83 885.311 1177.02 815.431C1166.69 754.409 1170.13 681.577 1173.09 616.618C1174.07 598.409 1174.56 581.185 1175.05 564.454C1177.02 492.605 1157.34 432.567 1117.97 391.722C1082.04 354.321 1029.88 334.145 971.811 334.145C894.549 334.145 816.303 368.592 757.25 429.122C721.325 466.031 698.688 503.924 688.846 545.261C679.988 582.17 681.464 621.047 693.767 663.86C715.912 743.583 769.552 823.305 826.145 907.457C845.83 936.983 866.499 967.002 885.199 997.513C928.505 1066.9 921.123 1116.11 907.344 1144.66C892.089 1176.15 861.086 1198.79 827.622 1202.72C823.685 1203.22 820.24 1203.22 816.303 1203.22C781.855 1203.22 757.25 1184.02 731.168 1163.85C714.928 1152.04 698.196 1139.24 678.511 1130.38Z" fill="#C4C4C4"/>
<path d="M860.101 1143.67C872.896 1134.32 880.77 1121.03 882.739 1104.79C888.644 1056.57 845.83 985.703 806.953 939.937C758.726 882.852 710.991 821.83 687.862 762.776C686.878 759.823 684.909 751.457 682.941 741.123C675.559 706.183 662.764 647.622 644.556 647.622C643.079 647.622 641.111 648.114 639.635 649.098C632.253 653.527 629.792 662.385 632.745 676.164C635.206 687.483 640.619 700.278 645.54 711.596C650.953 723.407 655.382 734.234 655.382 740.139C655.382 755.394 648.001 761.792 641.111 768.681C635.698 773.603 630.285 779.016 628.316 787.874C625.856 799.685 630.777 808.543 635.206 816.908C639.635 824.782 644.064 832.656 642.587 843.483C640.127 862.675 579.105 932.063 525.464 993.085C481.174 1043.77 442.789 1087.57 443.282 1095.94C443.282 1096.43 443.774 1096.92 443.774 1097.41C447.218 1100.37 454.108 1101.84 464.442 1101.84C480.19 1101.84 502.335 1098.4 527.925 1093.97C558.928 1089.05 594.36 1083.14 624.871 1083.14C648.493 1083.14 666.701 1086.59 679.496 1093.48C686.385 1097.41 694.259 1101.84 702.625 1106.76C739.534 1127.92 784.808 1154.5 823.685 1154.5C837.464 1154.99 849.767 1151.05 860.101 1143.67ZM679.496 1092.49C666.209 1085.6 648.493 1082.16 624.379 1082.16C593.868 1082.16 558.436 1087.57 527.433 1092.98C501.843 1096.92 479.698 1100.86 463.95 1100.86C454.108 1100.86 447.711 1099.38 444.266 1096.43C444.266 1096.43 444.266 1096.43 444.266 1095.94C443.774 1088.06 483.635 1042.79 525.957 994.069C579.597 932.555 641.111 863.167 643.572 843.483C645.048 832.656 640.619 824.29 636.19 815.924C631.269 807.066 626.84 799.192 629.3 787.874C631.269 779.016 636.19 774.587 641.603 769.174C648.493 762.284 655.874 755.394 656.367 739.647C656.367 733.249 651.938 722.915 646.524 710.612C641.603 699.293 636.19 686.499 633.729 675.672C630.777 662.877 632.745 654.511 639.635 650.082C641.111 649.098 642.587 648.606 644.064 648.606C661.288 648.606 674.083 708.644 680.972 741.123C683.433 751.95 684.909 759.823 686.385 762.776C710.007 821.83 757.742 882.852 805.969 939.937C844.354 985.211 887.168 1055.58 881.262 1103.32C879.294 1119.56 871.912 1132.35 859.609 1141.21C849.767 1148.59 837.464 1152.04 823.193 1152.04C784.808 1152.04 739.534 1125.46 703.117 1104.3C694.259 1100.86 686.385 1096.43 679.496 1092.49Z" fill="#C4C4C4"/>
<path d="M842.877 1082.16C847.306 1041.8 804 977.829 782.347 953.716C744.947 911.394 718.865 875.47 701.641 851.848C684.417 828.227 675.067 815.432 669.161 815.432C664.732 815.432 662.764 820.845 661.288 834.132C650.461 934.523 585.502 988.656 547.117 1021.14C530.385 1035.41 519.067 1044.76 518.575 1052.63C518.575 1055.09 519.067 1057.06 521.035 1058.54C524.48 1062.47 530.385 1063.95 538.751 1063.95C548.102 1063.95 560.404 1061.49 574.184 1059.03C592.392 1055.58 613.061 1052.14 633.729 1052.14C662.272 1052.14 685.401 1059.52 704.594 1073.79C731.168 1094.46 770.537 1116.61 801.54 1116.61C812.858 1116.61 822.209 1113.65 830.082 1108.24C836.972 1101.84 841.893 1092.98 842.877 1082.16ZM800.556 1114.64C770.045 1114.64 731.168 1092.49 704.594 1072.32C685.401 1057.55 661.78 1050.17 633.237 1050.17C612.076 1050.17 591.408 1054.11 573.199 1057.06C559.42 1059.52 547.117 1061.98 537.767 1061.98C529.893 1061.98 524.48 1060.5 521.035 1057.06C519.559 1055.58 519.067 1054.11 519.067 1052.14C519.559 1045.25 530.878 1035.41 547.117 1021.63C585.994 989.148 650.953 934.523 661.78 833.64C663.256 821.829 665.225 816.416 668.177 816.416C673.59 816.416 683.433 830.195 699.672 852.34C716.896 875.962 742.978 912.378 780.379 954.208C802.032 978.321 845.338 1041.8 840.909 1081.67C839.925 1092.49 835.004 1100.86 827.622 1106.27C820.732 1111.68 811.382 1114.64 800.556 1114.64Z" fill="#C4C4C4"/>
<path d="M1263.63 677.148C1258.71 753.918 1280.86 807.066 1303 831.18C1313.34 842.006 1324.66 847.911 1334.5 847.911C1348.77 847.911 1359.6 836.593 1365.01 816.416C1398.47 684.53 1284.3 545.754 1270.03 533.943C1266.09 530.498 1263.14 530.006 1261.17 531.975C1257.73 535.419 1258.71 547.23 1260.68 568.883C1263.14 593.981 1266.59 632.366 1263.63 677.148ZM1263.14 533.943C1263.63 533.451 1263.63 533.451 1264.13 533.451C1264.62 533.451 1266.09 533.943 1268.55 535.911C1282.33 547.23 1396.01 685.022 1362.55 815.432C1357.63 834.624 1347.79 845.451 1334.5 845.451C1325.15 845.451 1314.32 839.545 1304.48 829.211C1282.33 805.59 1260.68 753.426 1265.6 677.148C1268.55 631.874 1265.11 593.981 1263.14 568.391C1261.67 550.183 1260.68 536.404 1263.14 533.943Z" fill="#C4C4C4"/>
<path d="M1225.74 672.719C1219.84 747.52 1234.6 808.05 1267.08 842.99C1284.3 861.198 1304.97 871.532 1325.64 871.532C1355.66 871.532 1379.28 850.864 1386.17 818.876C1406.84 725.375 1374.85 640.731 1344.34 586.599C1308.42 523.116 1262.65 477.842 1240.5 463.078C1232.63 457.665 1226.73 454.22 1223.28 454.22C1221.8 454.22 1220.82 454.712 1220.33 455.696C1217.38 459.141 1218.85 467.999 1220.82 486.208C1225.25 517.703 1232.63 577.741 1225.74 672.719ZM1221.31 456.189C1221.8 455.697 1222.3 455.204 1223.28 455.204C1226.23 455.204 1232.14 458.649 1239.52 463.57C1289.22 497.034 1422.09 648.605 1384.69 817.892C1377.8 849.387 1354.67 869.564 1325.15 869.564C1304.48 869.564 1284.3 859.722 1267.57 841.513C1235.58 806.573 1220.82 746.536 1226.23 672.719C1233.61 577.741 1225.74 517.703 1221.8 485.715C1220.33 468.984 1219.34 459.141 1221.31 456.189Z" fill="#C4C4C4"/>
<path d="M1197.2 677.64C1191.29 770.649 1209.5 843.974 1247.39 884.328C1267.08 904.996 1290.7 916.315 1316.29 916.315C1365.01 916.315 1406.35 876.946 1419.14 818.384C1437.84 731.772 1421.6 646.637 1371.41 565.438C1320.23 482.763 1249.36 429.615 1211.47 405.009C1192.28 392.706 1183.91 387.293 1180.96 391.23C1178.5 394.183 1179.97 403.533 1183.42 421.249C1190.31 459.142 1205.56 539.356 1197.2 677.64ZM1181.94 391.722C1182.44 391.23 1182.93 391.23 1183.91 391.23C1187.85 391.23 1196.71 396.643 1210.98 405.993C1336.47 487.684 1457.03 638.763 1418.16 817.892C1405.36 875.962 1365.01 914.839 1316.78 914.839C1291.68 914.839 1268.06 904.012 1248.87 883.343C1210.98 843.482 1193.75 770.157 1199.17 677.64C1207.53 539.356 1192.28 459.142 1184.9 420.265C1181.45 404.025 1179.48 394.183 1181.94 391.722Z" fill="#C4C4C4"/>
<path d="M630.776 368.592C644.555 368.592 654.89 355.305 665.224 335.129C683.924 299.697 722.801 282.965 743.962 273.615C754.789 269.186 758.726 267.217 758.234 264.264C757.741 261.804 755.281 260.82 740.517 259.835C696.719 256.883 599.281 298.22 587.962 329.716C585.502 337.097 587.47 343.495 593.376 348.908C610.107 362.687 621.426 368.592 630.776 368.592ZM590.915 331.192C601.249 302.649 692.29 263.28 735.596 263.28C737.073 263.28 738.549 263.28 740.025 263.28C748.391 263.772 752.328 264.265 753.805 264.757C751.836 266.233 746.915 268.201 742.486 270.17C721.325 279.52 681.464 296.744 662.271 333.16C649.969 355.798 641.111 365.148 630.776 365.148C621.918 365.148 611.584 359.242 595.344 345.955C590.423 342.018 588.946 337.097 590.915 331.192Z" fill="#C4C4C4"/>
<path d="M673.59 367.116C707.054 306.094 768.568 284.934 817.78 273.123C822.701 272.139 823.193 269.678 822.701 268.202C821.717 258.359 774.966 239.167 705.578 239.167C697.704 239.167 689.83 239.167 681.956 239.659C650.461 241.628 575.66 285.918 548.594 318.397C541.704 326.763 538.259 334.145 539.244 339.558C541.212 353.337 553.023 359.243 567.294 366.132C582.057 373.514 598.789 381.88 607.155 401.564C612.076 412.883 617.982 418.788 625.856 418.788C639.143 418.296 654.89 401.072 673.59 367.116ZM609.616 400.58C601.25 380.404 584.026 371.546 568.77 364.164C555.483 357.274 543.673 351.861 542.196 339.558C541.704 335.129 544.657 328.24 551.054 320.366C577.628 287.886 651.445 244.58 682.449 242.612C690.322 242.12 698.196 242.12 706.07 242.12C773.982 242.12 819.748 260.82 820.732 268.694C820.732 270.17 818.764 270.662 817.78 271.154C767.584 282.965 705.578 304.618 671.622 366.624C643.079 417.312 621.919 429.615 609.616 400.58Z" fill="#C4C4C4"/>
<path d="M1321.21 788.857C1323.67 788.857 1326.13 786.889 1328.1 783.444C1337.45 765.236 1337.45 703.23 1311.86 665.337C1308.42 660.416 1303.99 660.908 1300.05 667.305C1290.7 683.545 1286.27 736.201 1312.35 781.476C1315.31 786.397 1318.26 788.857 1321.21 788.857ZM1303 669.274C1304.48 667.305 1305.46 665.829 1306.45 665.829C1307.43 665.829 1308.42 666.813 1308.42 667.797C1332.53 704.214 1333.51 765.236 1324.16 782.46C1323.18 784.921 1321.7 785.905 1320.23 785.905C1318.75 785.905 1316.78 783.936 1314.81 780.491C1290.7 736.201 1294.14 684.529 1303 669.274Z" fill="#C4C4C4"/>
<path d="M818.271 1320.83C891.596 1312.47 978.7 1225.36 1002.32 1158.93C1043.17 1043.28 970.827 950.271 900.946 860.214C833.527 773.602 770.044 691.419 801.048 591.52C828.114 504.416 915.218 457.665 983.622 457.665C1020.53 457.665 1052.03 470.952 1073.19 494.574C1098.28 522.624 1108.13 565.438 1101.73 618.094C1079.58 799.192 1073.19 997.514 1275.44 1056.07C1298.57 1062.96 1321.7 1066.41 1343.36 1066.41C1428.49 1066.41 1482.62 1017.69 1513.14 976.845C1571.7 898.599 1591.87 780.984 1563.82 685.022C1539.71 603.331 1492.47 524.593 1419.14 443.394C1310.38 322.826 1162.26 218.99 965.905 126.473L957.539 122.536C874.864 83.6592 789.729 43.3059 700.164 21.1608C694.751 19.6845 688.846 18.2082 682.448 16.7318C654.89 9.35012 619.95 0 590.423 0C578.612 0 568.278 1.47631 559.912 4.42899C547.117 8.85801 539.735 17.7161 532.846 26.082C527.433 32.4795 522.511 38.8769 514.638 43.798C509.716 46.7507 499.874 50.6877 489.54 54.6246C472.808 61.022 455.584 67.9116 450.171 73.817C439.836 86.1198 442.789 93.5015 445.25 100.883C447.218 105.804 449.186 110.725 446.726 118.107L444.757 124.013C429.994 167.811 429.994 167.811 395.546 177.653C389.149 179.621 380.783 182.082 370.94 185.035C342.398 193.893 331.079 208.164 319.761 221.451C310.903 231.785 303.029 241.628 287.773 249.501C287.281 249.501 286.789 249.501 286.297 249.501C268.581 249.501 134.234 258.359 123.9 291.331C120.947 300.189 127.344 310.031 141.616 319.874C159.824 332.669 174.095 334.145 182.953 334.145C187.382 334.145 191.319 333.653 194.764 333.161C198.209 332.669 201.161 332.669 204.114 332.669C214.941 332.669 225.767 335.621 241.023 372.53C244.467 381.388 247.42 389.262 249.881 395.167C261.691 425.678 261.691 426.17 291.218 438.473C298.6 441.426 307.458 445.362 319.269 450.776C357.161 468.492 365.035 488.176 374.877 513.274C380.291 526.561 386.196 541.817 397.022 558.549C408.833 576.757 423.104 591.52 436.392 605.299C460.505 630.397 483.142 654.018 490.524 693.388C502.827 761.791 465.918 827.242 424.089 887.772C403.912 917.299 362.082 951.255 317.3 987.179C242.007 1048.69 156.871 1118.08 156.379 1182.55C156.379 1219.46 165.729 1247.51 184.43 1266.21C205.098 1286.88 236.101 1296.72 279.407 1296.72C342.398 1296.72 420.152 1275.56 488.556 1256.86C542.688 1242.09 588.947 1229.3 618.966 1229.3C625.855 1229.3 631.268 1229.79 635.697 1231.27C664.24 1239.63 687.369 1257.84 709.022 1275.56C738.057 1298.69 765.615 1320.83 805.477 1320.83C809.906 1321.82 814.335 1321.32 818.271 1320.83ZM637.174 1228.31C632.253 1226.84 626.347 1226.35 619.458 1226.35C589.439 1226.35 542.688 1239.14 488.556 1253.9C420.152 1272.6 342.89 1293.77 280.392 1293.77C237.578 1293.77 207.559 1283.92 187.874 1264.24C169.666 1246.03 160.808 1218.47 160.808 1183.04C161.3 1120.05 245.944 1051.15 320.253 990.624C364.543 954.208 406.865 920.252 427.533 890.233C469.855 829.211 507.256 763.268 494.953 693.388C487.571 653.034 464.442 628.921 439.836 603.331C426.549 589.552 412.278 574.788 400.467 557.072C389.641 540.34 383.735 525.577 378.322 512.29C367.988 486.208 360.114 466.031 320.745 447.823C308.934 442.41 300.076 438.473 292.694 435.52C264.152 423.217 264.152 423.217 252.833 394.183C250.373 387.785 247.42 380.404 243.975 371.546C229.704 336.113 218.385 329.224 204.114 329.224C201.161 329.224 197.717 329.716 194.764 329.716C190.827 330.208 187.382 330.208 182.953 330.208C173.603 330.208 161.3 328.732 143.584 316.429C130.297 307.079 124.884 298.713 126.852 291.331C135.71 262.788 261.199 251.962 285.805 251.962C286.297 251.962 286.789 251.962 286.789 251.962L287.281 250.486L288.265 251.962C304.505 243.596 313.363 233.262 322.221 222.927C333.54 209.148 344.366 196.353 371.925 187.495C381.767 184.542 390.133 182.082 396.53 180.113C432.455 169.779 432.947 169.287 448.202 124.013L450.171 118.107C453.123 109.741 450.663 103.836 448.694 98.4227C446.234 91.5331 443.773 85.6277 453.123 75.2933C458.045 69.3879 475.761 62.9905 491.016 57.0851C501.351 53.1482 511.193 49.2113 516.606 46.2586C524.972 41.3375 530.385 34.4479 535.798 28.0504C542.688 19.6845 549.578 11.8107 561.388 7.3817C569.262 4.42902 579.104 2.95267 590.915 2.95267C619.95 2.95267 654.398 12.3028 681.956 19.1924C688.354 20.6687 694.259 22.6372 699.672 23.6214C789.237 45.7665 874.372 86.1198 956.555 124.997L964.921 128.934C1160.78 221.451 1308.42 324.795 1416.68 444.87C1489.51 525.577 1536.76 604.315 1560.38 685.022C1588.43 780 1568.25 896.138 1510.18 973.892C1480.16 1014.25 1426.52 1061.98 1342.86 1061.98C1321.21 1061.98 1298.57 1058.54 1275.94 1052.14C1076.63 994.561 1083.03 797.716 1104.68 618.094C1111.08 564.454 1101.24 520.656 1075.65 491.621C1053.99 467.015 1021.02 453.728 983.622 453.728C914.234 453.728 825.653 501.463 798.095 590.044C766.6 691.419 834.019 778.031 898.978 861.69C968.366 950.763 1039.72 1043.28 999.861 1156.96C976.732 1222.41 891.104 1308.53 818.764 1316.4C814.827 1316.9 810.89 1316.89 806.953 1316.89C768.568 1316.89 741.502 1295.24 712.959 1272.11C689.83 1255.87 666.701 1237.17 637.174 1228.31Z" fill="#C4C4C4"/>
</g>
</svg>
