<svg width="130" height="83" viewBox="0 0 130 83" fill="none" xmlns="http://www.w3.org/2000/svg">
<path d="M21.0765 0.0233847C27.6046 0.0233847 34.1326 0.0388705 40.6678 0.000156082C41.5401 -0.00758679 41.7689 0.271157 41.7832 1.19256C41.8332 4.91688 41.9691 8.63346 42.0478 12.3578C42.0549 12.7759 42.3338 13.4031 41.5544 13.4495C40.9109 13.4882 40.3818 13.5424 40.2102 12.5668C39.9027 10.8324 39.3665 9.16772 38.6872 7.54946C37.8149 5.46663 36.3706 4.25874 34.3113 3.80191C31.3226 3.13602 28.2981 3.33733 25.2808 3.29088C24.8375 3.28313 24.6444 3.49219 24.6873 3.97225C24.7016 4.15808 24.6873 4.35165 24.6873 4.53748C24.6873 17.5842 24.6873 30.6387 24.6873 43.6855C24.6873 45.0405 24.7517 46.3877 25.0591 47.7118C25.3523 48.9584 26.053 49.7404 27.1755 50.1043C28.4125 50.5069 29.6709 50.7547 30.9579 50.8166C31.4656 50.8399 31.7945 50.925 31.7945 51.6296C31.8017 52.4039 31.387 52.342 30.915 52.342C24.4228 52.3342 17.9233 52.342 11.431 52.3342C11.0163 52.3342 10.523 52.5123 10.5015 51.6916C10.4801 50.925 10.8376 50.8476 11.3881 50.8166C12.6751 50.7392 13.9336 50.4837 15.1562 50.0114C16.1143 49.6397 16.715 48.9274 16.9795 47.8743C17.3227 46.4806 17.4228 45.0637 17.4228 43.6313C17.4228 30.5458 17.4157 17.4526 17.4371 4.36714C17.4371 3.55414 17.2798 3.25216 16.4718 3.28313C14.0122 3.36056 11.5454 3.25216 9.0858 3.56962C5.89685 3.97999 3.74467 5.6602 2.77226 9.03609C2.42906 10.2207 2.02865 11.3899 1.88565 12.621C1.7641 13.6586 1.12059 13.465 0.519979 13.4573C-0.202181 13.4495 0.0337728 12.8533 0.048073 12.4739C0.141024 8.67992 0.276876 4.87817 0.355527 1.08416C0.369827 0.232442 0.605781 0.000156082 1.38514 0.00789896C7.94893 0.0388705 14.5127 0.0233847 21.0765 0.0233847Z" fill="white"/>
<path d="M108.973 0.0233593C115.508 0.0233593 122.036 0.038845 128.571 0.00787354C129.329 0.00787354 129.579 0.18596 129.594 1.05316C129.665 4.77749 129.823 8.49407 129.916 12.2184C129.93 12.6752 130.302 13.3953 129.365 13.465C128.593 13.5192 128.192 13.3488 128.021 12.4042C127.713 10.7085 127.184 9.07478 126.505 7.49524C125.69 5.59049 124.396 4.3826 122.501 3.88705C119.383 3.0818 116.216 3.32957 113.063 3.29085C112.655 3.28311 112.505 3.49991 112.519 3.91803C112.526 4.18128 112.519 4.44454 112.519 4.7078C112.519 17.499 112.519 30.2903 112.519 43.0892C112.519 44.5217 112.562 45.9386 112.834 47.3556C113.113 48.8267 113.849 49.7636 115.215 50.1585C116.395 50.4992 117.582 50.7469 118.797 50.8166C119.298 50.8476 119.641 50.925 119.648 51.6296C119.648 52.4039 119.226 52.342 118.761 52.342C112.226 52.342 105.698 52.342 99.1629 52.342C98.7125 52.342 98.3621 52.3575 98.3407 51.6683C98.3192 50.9792 98.6195 50.8476 99.1486 50.8166C100.328 50.7469 101.48 50.4992 102.624 50.1507C104.032 49.7171 104.747 48.7183 104.99 47.2007C105.233 45.6754 105.319 44.1345 105.319 42.5937C105.326 29.9109 105.305 17.2358 105.341 4.55294C105.341 3.47668 105.033 3.23665 104.111 3.26762C101.337 3.3528 98.5552 3.15922 95.8024 3.7864C93.5573 4.29743 91.9699 5.59049 91.0547 7.89012C90.4398 9.41547 89.975 10.995 89.7319 12.621C89.5889 13.6044 89.0098 13.4418 88.4378 13.4495C87.687 13.465 87.8515 12.8688 87.8658 12.412C87.9873 8.57924 88.1446 4.74651 88.2233 0.906047C88.2447 -0.0153551 88.6666 0.00787354 89.2672 0.0156164C95.8453 0.0311022 102.409 0.0233593 108.973 0.0233593Z" fill="white"/>
<path d="M67.1235 0.79765C72.7864 0.79765 78.4492 0.813136 84.1049 0.782164C85.013 0.774422 85.1989 0.998965 84.9916 1.98231C84.3052 5.28078 83.6974 8.59473 83.1039 11.9164C82.9895 12.5668 82.8251 12.7759 82.1744 12.7139C81.4523 12.6442 81.5667 12.2106 81.581 11.7151C81.6096 10.7008 81.6382 9.68647 81.6024 8.67215C81.5309 6.50415 80.4584 4.9788 78.5636 4.31292C76.9978 3.76317 75.3675 3.60831 73.7373 3.50766C70.6199 3.31408 67.4953 3.22117 64.3707 3.52314C63.0837 3.64703 62.3901 4.39809 62.0469 5.70663C60.5668 11.4441 59.0582 17.1893 57.5424 22.9268C57.4065 23.4533 57.242 23.8404 58.0357 23.8017C61.0173 23.6469 63.9989 23.5307 66.959 23.0816C68.5821 22.8339 69.8191 22.0673 70.8058 20.6814C71.6137 19.5432 72.3431 18.3507 72.9294 17.0732C73.2225 16.4383 73.6086 16.5854 74.0448 16.7325C74.6096 16.9261 74.295 17.3442 74.2092 17.6539C72.5504 23.2752 70.8773 28.8811 69.2042 34.4946C69.0898 34.8663 69.0683 35.3309 68.4748 35.1528C67.9243 34.9902 67.7527 34.696 67.8742 34.1075C68.1388 32.7835 68.389 31.4594 68.3247 30.0889C68.2317 28.2229 67.4381 27.1621 65.7435 26.7982C62.8906 26.1788 59.9948 26.473 57.1205 26.4111C56.4412 26.3956 56.4984 27.0305 56.3912 27.4486C55.2615 31.8234 54.1532 36.2136 53.0449 40.596C52.5945 42.3691 52.1369 44.1423 51.7007 45.9231C50.9643 48.9041 51.8509 50.3908 54.6251 50.8399C55.2114 50.9328 55.7977 51.0025 56.384 51.0334C56.8273 51.0567 57.0847 51.1651 57.0704 51.7458C57.0561 52.2955 56.7916 52.3342 56.4055 52.3342C50.7426 52.3265 45.0797 52.3342 39.424 52.3342C39.0522 52.3342 38.7448 52.3342 38.7233 51.769C38.709 51.2193 38.9307 51.0257 39.3883 51.0179C42.3699 50.956 43.7641 48.9041 44.4934 46.1244C46.0951 40.0153 47.6681 33.8984 49.2268 27.7816C50.8999 21.2311 52.5516 14.6729 54.1818 8.10692C54.3677 7.34812 54.4821 6.55835 54.5107 5.77632C54.5965 3.63929 53.9459 2.7566 52.001 2.31525C51.3575 2.16814 50.6854 2.16814 50.0491 2.01328C49.6344 1.91262 48.8764 2.40817 48.8907 1.40934C48.905 0.333078 49.7058 0.813136 50.1349 0.813136C53.431 0.766679 56.7344 0.789907 60.0306 0.789907C62.3973 0.79765 64.764 0.79765 67.1235 0.79765Z" fill="white"/>
<path d="M89.0311 14.5258C89.0311 26.8834 89.0168 38.9545 89.0597 51.0257C89.0668 52.1406 88.7737 52.3807 87.7941 52.3729C82.0669 52.3265 76.3468 52.3497 70.4551 52.3497C76.6471 39.7443 82.7819 27.255 89.0311 14.5258ZM72.7217 51.9548C72.7217 51.978 72.7217 52.0013 72.7217 52.0245C77.5265 52.0245 82.3386 52.0245 87.1434 52.0245C87.1434 52.0013 87.1434 51.978 87.1434 51.9548C82.3386 51.9548 77.5337 51.9548 72.7217 51.9548Z" fill="white"/>
<path d="M40.4602 79.2794C38.4867 81.0603 36.3774 82.2837 33.8606 82.5237C32.1017 82.694 30.3857 82.5392 28.7769 81.6952C26.8035 80.6577 25.6952 78.9233 25.5665 76.5462C25.4306 74.0995 26.3387 72.1637 28.2263 70.7855C29.7779 69.655 31.544 69.3066 33.3458 69.0821C35.3478 68.8266 37.3356 68.5323 39.3018 68.029C40.0311 67.8432 40.3243 67.518 40.3028 66.6663C40.2456 63.9485 39.3018 62.64 36.8422 62.1522C35.6767 61.9277 34.4827 61.9586 33.3101 62.1522C31.6083 62.4309 30.4143 63.4685 29.9495 65.2571C29.6993 66.225 29.2989 66.434 28.4766 66.1785C28.0118 66.0314 27.5185 65.954 27.0394 65.9617C26.1814 65.9694 26.2172 65.5358 26.4031 64.839C27.4541 60.9598 30.1783 59.4345 33.5675 59.0009C35.7411 58.7221 37.929 58.7608 40.0526 59.5583C42.2548 60.3946 43.4703 62.0515 43.7277 64.5215C43.9923 67.1464 43.8064 69.7789 43.8493 72.4115C43.885 74.7034 43.7563 77.003 44.071 79.2794C44.1353 79.7595 44.214 80.2473 44.3498 80.7119C44.7502 82.1211 44.7574 82.1211 43.4346 82.1211C41.2324 82.1133 41.2324 82.1133 40.4602 79.2794ZM40.2814 72.2799C40.2957 70.6848 40.2957 70.6926 38.9229 71.1262C38.6583 71.2114 38.3938 71.2965 38.1221 71.3507C36.0485 71.7843 33.9607 72.1482 31.9086 72.6593C30.1998 73.0851 29.2631 74.4247 29.3132 76.0894C29.3632 77.7928 30.4643 79.1168 32.1589 79.4498C35.6767 80.1544 40.4244 78.5903 40.2814 72.2799Z" fill="white"/>
<path d="M59.594 71.6837C57.306 71.6837 55.0108 71.7224 52.7227 71.6605C51.8647 71.6372 51.7646 71.9547 51.879 72.7677C52.4081 76.4146 54.0741 78.6832 56.7626 79.3182C59.6655 80.0073 62.1466 78.7374 63.3549 75.8106C63.7053 74.9589 64.0771 74.6724 64.8922 74.9202C65.3856 75.0673 65.9218 75.1525 66.4366 75.1447C67.4448 75.1138 67.359 75.6093 67.0873 76.3836C65.4213 81.1068 61.546 82.9883 57.1344 82.516C51.7289 81.9352 48.4684 77.9941 48.2468 72.1018C48.1681 69.9028 48.2825 67.7426 48.9403 65.6442C50.3704 61.0992 54.0741 58.5982 58.8933 58.9002C62.9688 59.1557 66.2793 62.3613 67.1874 66.9296C67.4377 68.1839 67.4949 69.4615 67.5592 70.739C67.595 71.4669 67.3662 71.7147 66.6726 71.7069C64.3131 71.6605 61.9535 71.6837 59.594 71.6837ZM57.8494 68.5788C59.5797 68.5788 61.3172 68.5865 63.0475 68.5788C63.405 68.5788 63.8483 68.7104 63.7625 67.9903C63.5838 66.4727 63.2262 65.0403 62.2324 63.8943C60.4592 61.858 58.2498 61.5018 55.926 62.3458C53.5522 63.2052 52.4367 65.2648 52.0435 67.8587C51.9434 68.5401 52.2723 68.5943 52.7513 68.5943C54.4531 68.571 56.1476 68.5788 57.8494 68.5788Z" fill="white"/>
<path d="M103.896 71.0565C103.839 72.8528 103.675 75.0596 102.731 77.0959C101.022 80.7815 97.0964 83.0037 93.0995 82.5624C88.8166 82.0901 85.7707 79.4575 84.7196 75.1989C83.8902 71.8153 83.8973 68.4162 85.0771 65.1254C86.4356 61.3082 89.167 59.2796 92.8421 58.9466C99.6419 58.3195 103.953 62.9497 103.896 71.0565ZM87.8156 70.6616C87.7941 71.7533 87.8656 72.8373 88.0802 73.9136C88.6879 76.9875 90.8115 79.202 93.3998 79.4498C96.1455 79.7053 98.6194 78.2032 99.5418 75.4699C100.621 72.2644 100.693 68.9737 99.4488 65.7913C97.7686 61.4863 92.4703 60.6268 89.6103 64.1344C88.0873 66.0004 87.8227 68.2923 87.8156 70.6616Z" fill="white"/>
<path d="M75.1741 62.6555C75.646 61.92 75.9606 61.4322 76.2681 60.9366C78.0342 58.1414 80.8513 58.575 82.932 59.8139C83.2251 59.9842 83.3396 60.1856 83.1822 60.534C83.075 60.7663 83.0035 61.0218 82.9177 61.2696C82.6817 61.9354 82.6031 62.8026 82.1598 63.213C81.6593 63.6776 80.9872 62.9575 80.3651 62.8336C78.456 62.4697 76.8258 63.4376 76.1537 65.4275C75.6103 67.038 75.4887 68.7182 75.4887 70.4216C75.4887 73.9137 75.4673 77.4134 75.503 80.9055C75.5102 81.7882 75.36 82.1521 74.4448 82.1366C71.9709 82.0747 71.9709 82.1288 71.9709 79.4188C71.9709 73.1471 71.9852 66.8676 71.9494 60.5959C71.9423 59.6513 72.0996 59.2796 73.072 59.3183C75.1026 59.3958 75.1026 59.3338 75.1241 61.587C75.1312 61.8348 75.1527 62.0903 75.1741 62.6555Z" fill="white"/>
</svg>
