<svg width="293" height="36" viewBox="0 0 293 36" fill="none" xmlns="http://www.w3.org/2000/svg">
<path d="M25.5829 0.64463V35.3554H19.8702V6.09917H5.71268V35.3554H0V0.64463H25.5829Z" fill="black"/>
<path d="M45.3673 0.64463C48.6459 0.64463 51.378 1.73554 53.5638 3.91736C55.7826 6.09918 56.892 8.80992 56.892 12.0496C56.892 15.2562 55.7826 17.9669 53.5638 20.1818C51.378 22.3636 48.6459 23.4545 45.3673 23.4545H38.2637V35.3554H32.551V0.64463H45.3673ZM45.3673 18.0992C46.1952 18.0992 46.9569 17.9504 47.6524 17.6529C48.381 17.3554 49.0102 16.9421 49.54 16.4132C50.0699 15.8512 50.4673 15.2066 50.7323 14.4793C51.0303 13.7521 51.1793 12.9421 51.1793 12.0496C51.1793 11.157 51.0303 10.3471 50.7323 9.61983C50.4673 8.89256 50.0699 8.26446 49.54 7.73554C49.0102 7.17356 48.381 6.7438 47.6524 6.44628C46.9569 6.14876 46.1952 6 45.3673 6H38.2637V18.0992H45.3673Z" fill="black"/>
<path d="M90.6209 30.7934C87.1436 34.2645 82.8881 36 77.8543 36C72.8205 36 68.5484 34.2645 65.038 30.7934C61.5607 27.2893 59.8221 23.0248 59.8221 18C59.8221 12.9752 61.5607 8.72727 65.038 5.2562C68.5484 1.75207 72.8205 0 77.8543 0C82.8881 0 87.1436 1.75207 90.6209 5.2562C94.1313 8.72727 95.8865 12.9752 95.8865 18C95.8865 23.0248 94.1313 27.2893 90.6209 30.7934ZM69.0617 26.9256C71.4793 29.2727 74.4101 30.4463 77.8543 30.4463C81.3316 30.4463 84.2459 29.2727 86.5972 26.9256C88.9816 24.5455 90.1738 21.5702 90.1738 18C90.1738 14.4298 88.9816 11.4711 86.5972 9.12397C84.2459 6.7438 81.3316 5.55372 77.8543 5.55372C74.377 5.55372 71.4462 6.7438 69.0617 9.12397C66.7104 11.4711 65.5348 14.4298 65.5348 18C65.5348 21.5372 66.7104 24.5124 69.0617 26.9256Z" fill="black"/>
<path d="M114.261 14.0331C117.474 14.0331 120.14 15.0413 122.259 17.0579C124.379 19.0744 125.438 21.6198 125.438 24.6942C125.438 27.7686 124.379 30.3141 122.259 32.3306C120.14 34.3471 117.474 35.3554 114.261 35.3554H101.097V0.64463H122.458V6.09917H106.81V14.0331H114.261ZM114.261 30C115.851 30 117.159 29.5207 118.186 28.562C119.212 27.5702 119.726 26.281 119.726 24.6942C119.726 23.1074 119.212 21.8347 118.186 20.876C117.159 19.8843 115.851 19.3884 114.261 19.3884H106.81V30H114.261Z" fill="black"/>
<path d="M158.925 30.7934C155.447 34.2645 151.192 36 146.158 36C141.124 36 136.852 34.2645 133.342 30.7934C129.865 27.2893 128.126 23.0248 128.126 18C128.126 12.9752 129.865 8.72727 133.342 5.2562C136.852 1.75207 141.124 0 146.158 0C151.192 0 155.447 1.75207 158.925 5.2562C162.435 8.72727 164.19 12.9752 164.19 18C164.19 23.0248 162.435 27.2893 158.925 30.7934ZM137.366 26.9256C139.783 29.2727 142.714 30.4463 146.158 30.4463C149.635 30.4463 152.55 29.2727 154.901 26.9256C157.285 24.5455 158.478 21.5702 158.478 18C158.478 14.4298 157.285 11.4711 154.901 9.12397C152.55 6.7438 149.635 5.55372 146.158 5.55372C142.681 5.55372 139.75 6.7438 137.366 9.12397C135.014 11.4711 133.839 14.4298 133.839 18C133.839 21.5372 135.014 24.5124 137.366 26.9256Z" fill="black"/>
<path d="M189.867 17.3554C191.391 18.1488 192.583 19.2397 193.444 20.6281C194.305 22.0165 194.736 23.6198 194.736 25.438C194.736 28.281 193.726 30.6446 191.705 32.5289C189.652 34.4132 187.185 35.3554 184.304 35.3554H169.401V0.64463H183.211C186.059 0.64463 188.46 1.57025 190.414 3.42149C192.401 5.27273 193.394 7.55372 193.394 10.2645C193.394 13.2397 192.219 15.6033 189.867 17.3554ZM175.114 6V15.124H183.211C184.469 15.124 185.529 14.6942 186.39 13.8347C187.251 12.9422 187.682 11.8512 187.682 10.562C187.682 9.27273 187.251 8.19835 186.39 7.33885C185.529 6.44628 184.469 6 183.211 6H175.114ZM184.304 30C185.629 30 186.738 29.5372 187.632 28.6116C188.559 27.686 189.023 26.5289 189.023 25.1405C189.023 23.7521 188.559 22.595 187.632 21.6694C186.738 20.7438 185.629 20.281 184.304 20.281H175.114V30H184.304Z" fill="black"/>
<path d="M222.373 35.3554L219.939 28.3636H205.135L202.701 35.3554H196.492L209.109 0.64463H215.965L228.532 35.3554H222.373ZM207.023 23.0083H218.051L212.537 7.33885L207.023 23.0083Z" fill="black"/>
<path d="M229.683 30.0992C230.776 30.2645 231.719 30.2314 232.514 30C233.342 29.7355 234.021 29.2397 234.551 28.5124C235.114 27.7851 235.528 26.7934 235.793 25.5372C236.058 24.2479 236.19 22.6446 236.19 20.7273V0.64463H259.488V35.3554H253.775V6.09917H241.903V20.6281C241.903 23.7025 241.572 26.281 240.909 28.3636C240.28 30.4132 239.369 31.9669 238.177 33.0248C236.985 34.0496 235.694 34.7438 234.303 35.1074C232.945 35.438 231.405 35.5207 229.683 35.3554V30.0992Z" fill="black"/>
<path d="M287.287 35.3554V11.8017L270.894 35.3554H266.424V0.64463H272.136V24.1983L288.529 0.64463H293V35.3554H287.287Z" fill="black"/>
</svg>
