<svg width="293" height="154" viewBox="0 0 293 154" fill="none" xmlns="http://www.w3.org/2000/svg">
<path d="M95.6386 74.14C108.273 82.3533 114.59 93.94 114.59 108.9C114.59 122.247 109.815 133.1 100.266 141.46C90.7171 149.82 78.8908 154 64.7874 154H0V0H60.3801C74.0428 0 85.5753 4.10667 94.9775 12.32C104.38 20.3867 109.081 30.9467 109.081 44C109.081 56.4667 104.6 66.5133 95.6386 74.14ZM35.2585 33V60.28H60.3801C64.3467 60.28 67.5788 59.0333 70.0762 56.54C72.5737 53.9 73.8224 50.6 73.8224 46.64C73.8224 42.68 72.5737 39.4533 70.0762 36.96C67.5788 34.32 64.3467 33 60.3801 33H35.2585ZM64.7874 121C69.1948 121 72.7206 119.68 75.365 117.04C78.0094 114.253 79.3316 110.66 79.3316 106.26C79.3316 101.86 78.0094 98.34 75.365 95.7C72.7206 92.9133 69.1948 91.52 64.7874 91.52H35.2585V121H64.7874Z" fill="#6777FF"/>
<path d="M132.133 154V0H167.392V48.4H190.53C205.809 48.4 218.59 53.5333 228.874 63.8C239.304 74.2133 244.52 86.68 244.52 101.2C244.52 115.72 239.304 128.187 228.874 138.6C218.59 148.867 205.809 154 190.53 154H132.133ZM257.742 154V0H293V154H257.742ZM167.392 121H190.53C195.966 121 200.447 119.093 203.972 115.28C207.498 111.467 209.261 106.773 209.261 101.2C209.261 95.6267 207.498 90.9333 203.972 87.12C200.447 83.3067 195.966 81.4 190.53 81.4H167.392V121Z" fill="#6777FF"/>
</svg>
