<svg width="511" height="64" viewBox="0 0 511 64" fill="none" xmlns="http://www.w3.org/2000/svg">
<path d="M41.6083 0H52.6028L32.0356 47.4299C26.9806 59.0442 18.798 64.5169 7.4876 63.848V54.0884C11.2788 54.4532 14.3117 53.9363 16.5865 52.5378C18.8612 51.0784 20.6936 48.6157 22.0837 45.1496L0 0H10.9945L27.107 33.657L41.6083 0Z" fill="black"/>
<path d="M108.982 0V63.848H98.0823V10.0333H71.07V63.848H60.1704V0H108.982Z" fill="black"/>
<path d="M146.73 0C152.986 0 158.199 2.00665 162.369 6.01996C166.602 10.0333 168.719 15.0195 168.719 20.9786C168.719 26.877 166.602 31.8632 162.369 35.9373C158.199 39.9506 152.986 41.9572 146.73 41.9572H133.177V63.848H122.277V0H146.73ZM146.73 32.1064C148.31 32.1064 149.763 31.8328 151.09 31.2855C152.48 30.7382 153.681 29.9781 154.692 29.0052C155.703 27.9715 156.461 26.7857 156.966 25.448C157.535 24.1102 157.819 22.6204 157.819 20.9786C157.819 19.3368 157.535 17.847 156.966 16.5093C156.461 15.1715 155.703 14.0162 154.692 13.0432C153.681 12.0095 152.48 11.219 151.09 10.6717C149.763 10.1245 148.31 9.85083 146.73 9.85083H133.177V32.1064H146.73Z" fill="black"/>
<path d="M214.738 63.848L210.093 50.9872H181.849L177.205 63.848H165.357L189.431 0H202.511L226.49 63.848H214.738ZM185.451 41.1363H206.492L195.971 12.3135L185.451 41.1363Z" fill="black"/>
<path d="M272.674 30.7382C275.581 32.1976 277.855 34.2043 279.498 36.7582C281.141 39.3121 281.962 42.2613 281.962 45.6057C281.962 50.8352 280.035 55.1829 276.181 58.6489C272.263 62.115 267.556 63.848 262.059 63.848H233.625V0H259.974C265.408 0 269.989 1.70261 273.717 5.10784C277.508 8.51307 279.403 12.7088 279.403 17.695C279.403 23.1677 277.16 27.5154 272.674 30.7382ZM244.524 9.85083V26.6337H259.974C262.375 26.6337 264.397 25.8432 266.039 24.2622C267.682 22.6204 268.504 20.6138 268.504 18.2423C268.504 15.8708 267.682 13.8945 266.039 12.3135C264.397 10.6717 262.375 9.85083 259.974 9.85083H244.524ZM262.059 53.9972C264.586 53.9972 266.703 53.1458 268.409 51.4432C270.178 49.7406 271.063 47.6124 271.063 45.0584C271.063 42.5045 270.178 40.3763 268.409 38.6736C266.703 36.971 264.586 36.1197 262.059 36.1197H244.524V53.9972H262.059Z" fill="black"/>
<path d="M284.22 54.1796C286.305 54.4836 288.106 54.4228 289.623 53.9972C291.202 53.5107 292.498 52.5986 293.509 51.2608C294.583 49.923 295.373 48.0988 295.878 45.7881C296.384 43.4166 296.636 40.4675 296.636 36.9406V0H341.088V63.848H330.188V10.0333H307.536V36.7582C307.536 42.4133 306.904 47.1563 305.64 50.9872C304.44 54.7572 302.702 57.6152 300.427 59.5611C298.153 61.4461 295.689 62.723 293.035 63.3919C290.444 64 287.506 64.152 284.22 63.848V54.1796Z" fill="black"/>
<path d="M400.1 0V63.848H389.2V40.5891H378.679L362.662 63.848H350.34L367.211 39.677C362.788 38.4 359.186 35.9981 356.406 32.4713C353.626 28.8836 352.236 24.9007 352.236 20.5226C352.236 14.8067 354.289 9.97245 358.396 6.01996C362.567 2.00665 367.622 0 373.561 0H400.1ZM389.2 31.1943V9.85083H373.561C372.108 9.85083 370.749 10.1245 369.486 10.6717C368.222 11.219 367.116 11.9791 366.168 12.952C365.221 13.9249 364.462 15.0803 363.894 16.4181C363.388 17.695 363.135 19.0632 363.135 20.5226C363.135 21.9819 363.388 23.3805 363.894 24.7183C364.462 25.9953 365.221 27.1202 366.168 28.0931C367.116 29.066 368.222 29.8261 369.486 30.3734C370.749 30.9207 372.108 31.1943 373.561 31.1943H389.2Z" fill="black"/>
<path d="M456.498 0V10.0333H437.826V63.848H426.927V10.0333H408.16V0H456.498Z" fill="black"/>
<path d="M489.011 21.8907C495.267 21.8907 500.479 23.9278 504.65 28.0019C508.883 32.0152 511 36.971 511 42.8694C511 48.8285 508.883 53.8147 504.65 57.828C500.479 61.8413 495.267 63.848 489.011 63.848H464.558V0H475.458V21.8907H489.011ZM489.011 53.9972C490.591 53.9972 492.044 53.7235 493.371 53.1763C494.761 52.629 495.962 51.8689 496.973 50.896C497.984 49.8622 498.742 48.6765 499.247 47.3387C499.816 46.001 500.1 44.5112 500.1 42.8694C500.1 41.2276 499.816 39.7378 499.247 38.4C498.742 37.0622 497.984 35.9069 496.973 34.934C495.962 33.9002 494.761 33.1097 493.371 32.5625C492.044 32.0152 490.591 31.7416 489.011 31.7416H475.458V53.9972H489.011Z" fill="black"/>
</svg>
