<svg width="511" height="70" viewBox="0 0 511 70" fill="none" xmlns="http://www.w3.org/2000/svg">
<path d="M26.6026 26.3462C33.7624 26.3462 39.477 28.3013 43.7466 32.2115C48.0818 36.0577 50.2494 41.1538 50.2494 47.5C50.2494 53.8462 48.0818 58.9744 43.7466 62.8846C39.4113 66.7308 33.6967 68.6538 26.6026 68.6538H0V1.34615H44.3377V16.1538H15.7645V26.3462H26.6026ZM26.6026 54.2308C31.8575 54.2308 34.4849 51.9872 34.4849 47.5C34.4849 43.0128 31.8575 40.7692 26.6026 40.7692H15.7645V54.2308H26.6026Z" fill="#6777FF"/>
<path d="M115.483 59.9038C108.454 66.6346 99.9811 70 90.0626 70C80.0784 70 71.6049 66.6346 64.6423 59.9038C57.6796 53.1731 54.1983 44.8718 54.1983 35C54.1983 25.1282 57.6796 16.8269 64.6423 10.0962C71.6049 3.36539 80.0784 0 90.0626 0C99.9811 0 108.454 3.36539 115.483 10.0962C122.446 16.8269 125.927 25.1282 125.927 35C125.927 44.8718 122.446 53.1731 115.483 59.9038ZM75.6774 49.4231C79.4872 53.141 84.2822 55 90.0626 55C95.7772 55 100.539 53.141 104.349 49.4231C108.225 45.641 110.162 40.8333 110.162 35C110.162 29.1667 108.225 24.359 104.349 20.5769C100.539 16.859 95.7772 15 90.0626 15C84.2822 15 79.4872 16.859 75.6774 20.5769C71.8677 24.2949 69.9628 29.1026 69.9628 35C69.9628 40.8974 71.8677 45.7051 75.6774 49.4231Z" fill="#6777FF"/>
<path d="M173.229 68.6538V32.1154L146.626 68.6538H134.803V1.34615H150.567V37.8846L177.17 1.34615H188.993V68.6538H173.229Z" fill="#6777FF"/>
<path d="M238.25 1.34615H254.014V68.6538H238.25V41.9231H216.574V68.6538H200.809V1.34615H216.574V27.1154H238.25V1.34615Z" fill="#6777FF"/>
<path d="M305.264 1.34615V16.1538H281.618V68.6538H265.853V1.34615H305.264Z" fill="#6777FF"/>
<path d="M366.518 59.9038C359.49 66.6346 351.016 70 341.098 70C331.114 70 322.64 66.6346 315.678 59.9038C308.715 53.1731 305.234 44.8718 305.234 35C305.234 25.1282 308.715 16.8269 315.678 10.0962C322.64 3.36539 331.114 0 341.098 0C351.016 0 359.49 3.36539 366.518 10.0962C373.481 16.8269 376.962 25.1282 376.962 35C376.962 44.8718 373.481 53.1731 366.518 59.9038ZM326.713 49.4231C330.523 53.141 335.318 55 341.098 55C346.813 55 351.575 53.141 355.385 49.4231C359.26 45.641 361.198 40.8333 361.198 35C361.198 29.1667 359.26 24.359 355.385 20.5769C351.575 16.859 346.813 15 341.098 15C335.318 15 330.523 16.859 326.713 20.5769C322.903 24.2949 320.998 29.1026 320.998 35C320.998 40.8974 322.903 45.7051 326.713 49.4231Z" fill="#6777FF"/>
<path d="M454.808 1.34615V68.6538H439.044V29.5192L421.21 58.0769H419.436L401.603 29.5192V68.6538H385.838V1.34615H401.603L420.323 31.25L439.044 1.34615H454.808Z" fill="#6777FF"/>
<path d="M479.471 44.6154C479.471 42.7564 479.865 41.0897 480.653 39.6154C481.441 38.0769 482.394 36.6667 483.511 35.3846C484.693 34.0385 485.974 32.7885 487.353 31.6346C488.733 30.4167 489.981 29.2308 491.097 28.0769C492.28 26.9231 493.265 25.7372 494.053 24.5192C494.841 23.3013 495.235 21.9872 495.235 20.5769C495.235 16.859 492.805 15 487.944 15C483.215 15 479.668 17.6923 477.303 23.0769L463.706 15.4808C465.874 10.609 469.158 6.82693 473.559 4.13462C478.026 1.37821 483.018 0 488.536 0C494.579 0 499.833 1.73077 504.3 5.19231C508.767 8.65385 511 13.3333 511 19.2308C511 22.7564 510.179 25.7692 508.537 28.2692C506.895 30.7692 505.088 32.9487 503.118 34.8077C501.147 36.6667 499.341 38.3654 497.699 39.9038C496.057 41.4423 495.235 43.0128 495.235 44.6154H479.471ZM493.955 67.3077C492.115 69.1026 489.915 70 487.353 70C484.791 70 482.591 69.1026 480.752 67.3077C478.913 65.5128 477.993 63.3654 477.993 60.8654C477.993 58.3654 478.913 56.2179 480.752 54.4231C482.591 52.6282 484.791 51.7308 487.353 51.7308C489.915 51.7308 492.115 52.6282 493.955 54.4231C495.794 56.2179 496.713 58.3654 496.713 60.8654C496.713 63.3654 495.794 65.5128 493.955 67.3077Z" fill="#6777FF"/>
</svg>
